<svg width="450" height="81" viewBox="0 0 450 81" fill="none" xmlns="http://www.w3.org/2000/svg">
<rect x="2.5" y="2.5" width="445" height="76" rx="7.5" stroke="white" stroke-width="5"/>
<path d="M169.258 22.875H173.781V47.0391C173.781 50.3047 172.797 52.8594 170.828 54.7031C168.875 56.5469 166.266 57.4688 163 57.4688C159.609 57.4688 156.969 56.6016 155.078 54.8672C153.188 53.1328 152.242 50.7031 152.242 47.5781H156.742C156.742 49.5312 157.273 51.0547 158.336 52.1484C159.414 53.2422 160.969 53.7891 163 53.7891C164.859 53.7891 166.359 53.2031 167.5 52.0312C168.656 50.8594 169.242 49.2188 169.258 47.1094V22.875ZM207.695 41.0391C207.695 44.3828 207.133 47.3047 206.008 49.8047C204.883 52.2891 203.289 54.1875 201.227 55.5C199.164 56.8125 196.758 57.4688 194.008 57.4688C191.32 57.4688 188.938 56.8125 186.859 55.5C184.781 54.1719 183.164 52.2891 182.008 49.8516C180.867 47.3984 180.281 44.5625 180.25 41.3438V38.8828C180.25 35.6016 180.82 32.7031 181.961 30.1875C183.102 27.6719 184.711 25.75 186.789 24.4219C188.883 23.0781 191.273 22.4062 193.961 22.4062C196.695 22.4062 199.102 23.0703 201.18 24.3984C203.273 25.7109 204.883 27.625 206.008 30.1406C207.133 32.6406 207.695 35.5547 207.695 38.8828V41.0391ZM203.219 38.8359C203.219 34.7891 202.406 31.6875 200.781 29.5312C199.156 27.3594 196.883 26.2734 193.961 26.2734C191.117 26.2734 188.875 27.3594 187.234 29.5312C185.609 31.6875 184.773 34.6875 184.727 38.5312V41.0391C184.727 44.9609 185.547 48.0469 187.188 50.2969C188.844 52.5312 191.117 53.6484 194.008 53.6484C196.914 53.6484 199.164 52.5938 200.758 50.4844C202.352 48.3594 203.172 45.3203 203.219 41.3672V38.8359ZM238.469 22.875V46.0781C238.453 49.2969 237.438 51.9297 235.422 53.9766C233.422 56.0234 230.703 57.1719 227.266 57.4219L226.07 57.4688C222.336 57.4688 219.359 56.4609 217.141 54.4453C214.922 52.4297 213.797 49.6562 213.766 46.125V22.875H218.219V45.9844C218.219 48.4531 218.898 50.375 220.258 51.75C221.617 53.1094 223.555 53.7891 226.07 53.7891C228.617 53.7891 230.562 53.1094 231.906 51.75C233.266 50.3906 233.945 48.4766 233.945 46.0078V22.875H238.469ZM264.859 41.2266H250.07V53.3203H267.25V57H245.57V22.875H267.016V26.5781H250.07V37.5469H264.859V41.2266ZM285.367 43.1953H277.352V57H272.828V22.875H284.125C287.969 22.875 290.922 23.75 292.984 25.5C295.062 27.25 296.102 29.7969 296.102 33.1406C296.102 35.2656 295.523 37.1172 294.367 38.6953C293.227 40.2734 291.633 41.4531 289.586 42.2344L297.602 56.7188V57H292.773L285.367 43.1953ZM277.352 39.5156H284.266C286.5 39.5156 288.273 38.9375 289.586 37.7812C290.914 36.625 291.578 35.0781 291.578 33.1406C291.578 31.0312 290.945 29.4141 289.68 28.2891C288.43 27.1641 286.617 26.5938 284.242 26.5781H277.352V39.5156Z" fill="white"/>
</svg>
